<svg width="150" height="150" viewBox="0 0 150 150" fill="none" xmlns="http://www.w3.org/2000/svg">
<path opacity="0.3" d="M75.1987 128.845C105.132 128.845 129.397 104.579 129.397 74.6459C129.397 44.7128 105.132 20.4473 75.1987 20.4473C45.2656 20.4473 21 44.7128 21 74.6459C21 104.579 45.2656 128.845 75.1987 128.845Z" fill="url(#paint0_linear)"/>
<path d="M75.1987 126.125C103.63 126.125 126.677 103.077 126.677 74.646C126.677 46.2152 103.63 23.1675 75.1987 23.1675C46.7679 23.1675 23.7202 46.2152 23.7202 74.646C23.7202 103.077 46.7679 126.125 75.1987 126.125Z" fill="url(#paint1_linear)"/>
<path d="M75.1987 13.1502C77.5226 13.1502 79.4065 11.2663 79.4065 8.94239C79.4065 6.61851 77.5226 4.73462 75.1987 4.73462C72.8749 4.73462 70.991 6.61851 70.991 8.94239C70.991 11.2663 72.8749 13.1502 75.1987 13.1502Z" fill="url(#paint2_linear)"/>
<path opacity="0.05" d="M75.1987 17.8847C80.1374 17.8847 84.141 13.8811 84.141 8.94235C84.141 4.00363 80.1374 0 75.1987 0C70.26 0 66.2563 4.00363 66.2563 8.94235C66.2563 13.8811 70.26 17.8847 75.1987 17.8847Z" fill="url(#paint3_linear)"/>
<path opacity="0.175" d="M75.1986 15.5175C78.8299 15.5175 81.7737 12.5738 81.7737 8.94249C81.7737 5.31119 78.8299 2.36743 75.1986 2.36743C71.5673 2.36743 68.6235 5.31119 68.6235 8.94249C68.6235 12.5738 71.5673 15.5175 75.1986 15.5175Z" fill="url(#paint4_linear)"/>
<path opacity="0.3" d="M75.1987 13.1502C77.5226 13.1502 79.4065 11.2663 79.4065 8.94239C79.4065 6.61851 77.5226 4.73462 75.1987 4.73462C72.8749 4.73462 70.991 6.61851 70.991 8.94239C70.991 11.2663 72.8749 13.1502 75.1987 13.1502Z" fill="url(#paint5_linear)"/>
<path d="M49.2711 112.815C46.5067 113.352 44.9983 117.599 46.1401 120.971C46.9393 123.332 50.0381 126.683 53.2632 126.056C55.0765 125.703 57.0217 125.325 55.3265 120.547C53.4179 115.168 51.6913 112.344 49.2711 112.815Z" fill="url(#paint6_linear)"/>
<path d="M56.5844 121.362C55.5667 121.56 54.537 121.116 54.2848 120.372C53.2592 117.343 51.9403 115.573 49.6544 115.541C48.6066 115.527 47.7871 114.891 47.8242 114.12C47.8613 113.349 48.7399 112.736 49.789 112.751C54.7246 112.819 56.8268 116.277 57.9706 119.655C58.2228 120.4 57.6021 121.164 56.5844 121.362Z" fill="url(#paint7_linear)"/>
<path d="M98.3473 112.815C101.112 113.352 102.62 117.599 101.478 120.971C100.679 123.332 97.5802 126.683 94.3551 126.056C92.5419 125.703 90.5966 125.325 92.2918 120.547C94.2005 115.168 95.9271 112.344 98.3473 112.815Z" fill="url(#paint8_linear)"/>
<path d="M91.0339 121.362C92.0517 121.56 93.0813 121.116 93.3335 120.372C94.3591 117.343 95.6781 115.573 97.9639 115.541C99.0118 115.527 99.8312 114.891 99.7941 114.12C99.757 113.349 98.8784 112.736 97.8293 112.751C92.8937 112.819 90.7915 116.277 89.6477 119.655C89.3955 120.4 90.0162 121.164 91.0339 121.362Z" fill="url(#paint9_linear)"/>
<path fill-rule="evenodd" clip-rule="evenodd" d="M90.2166 52.2781C90.2273 51.8635 90.5717 51.5361 90.9858 51.5469L90.9664 52.2976C90.9858 51.5469 90.9861 51.5469 90.9863 51.5469L90.9887 51.547L90.9939 51.5471L91.0113 51.5477C91.0259 51.5482 91.0466 51.549 91.073 51.5502C91.1259 51.5526 91.2017 51.5565 91.2979 51.5628C91.4903 51.5755 91.7648 51.5977 92.101 51.6365C92.7721 51.714 93.6959 51.858 94.7062 52.1254C96.6949 52.6516 99.1682 53.6947 100.604 55.801C100.837 56.1436 100.749 56.6108 100.407 56.8446C100.065 57.0784 99.5984 56.9902 99.3649 56.6477C98.2385 54.9952 96.2028 54.0749 94.3229 53.5775C93.399 53.333 92.5487 53.2001 91.9292 53.1286C91.6202 53.0929 91.3703 53.0728 91.1996 53.0615C91.1143 53.0559 91.0489 53.0526 91.0059 53.0506C90.9844 53.0497 90.9686 53.0491 90.9586 53.0487L90.9482 53.0484L90.9469 53.0483L90.9465 53.0483C90.5326 53.0374 90.2058 52.6926 90.2166 52.2781Z" fill="url(#paint10_linear)"/>
<path fill-rule="evenodd" clip-rule="evenodd" d="M60.3579 52.3045C60.3471 51.8899 60.0027 51.5625 59.5886 51.5733L59.6081 52.324C59.5886 51.5733 59.5884 51.5733 59.5881 51.5733L59.5858 51.5733L59.5806 51.5735L59.5632 51.5741C59.5485 51.5746 59.5279 51.5754 59.5014 51.5766C59.4486 51.5789 59.3728 51.5828 59.2766 51.5892C59.0842 51.6018 58.8097 51.6241 58.4734 51.6629C57.8024 51.7404 56.8786 51.8844 55.8682 52.1517C53.8796 52.678 51.4063 53.7211 49.9706 55.8274C49.7371 56.1699 49.8251 56.6372 50.1673 56.871C50.5094 57.1048 50.9761 57.0166 51.2096 56.674C52.336 55.0215 54.3717 54.1013 56.2515 53.6038C57.1754 53.3594 58.0257 53.2265 58.6452 53.155C58.9543 53.1193 59.2041 53.0991 59.3748 53.0879C59.4601 53.0823 59.5255 53.0789 59.5685 53.077C59.59 53.076 59.6059 53.0754 59.6158 53.0751L59.6263 53.0747L59.6276 53.0747L59.6279 53.0747C60.0419 53.0637 60.3687 52.719 60.3579 52.3045Z" fill="url(#paint11_linear)"/>
<path d="M84.2021 87.8718C83.9185 81.8433 78.3397 79.9123 74.8852 80.0748C71.4304 80.2373 66.2077 82.2364 66.4913 88.2649C66.7393 93.5349 69.7314 89.4567 75.1483 89.2018C80.177 88.9652 84.4398 92.9222 84.2021 87.8718Z" fill="url(#paint12_linear)"/>
<path d="M60.5433 69.5486C63.7783 69.5486 66.4009 66.9198 66.4009 63.6774C66.4009 60.4349 63.7783 57.8062 60.5433 57.8062C57.3083 57.8062 54.6858 60.4349 54.6858 63.6774C54.6858 66.9198 57.3083 69.5486 60.5433 69.5486Z" fill="url(#paint13_linear)"/>
<path fill-rule="evenodd" clip-rule="evenodd" d="M60.0741 60.1943C61.3164 59.9916 62.6359 60.3943 63.5584 61.387L63.0281 62.2036L59.9924 61.1647L60.0741 60.1943ZM63.9725 62.9927C64.2461 62.948 64.5041 63.1336 64.5488 63.4072C64.5861 63.6356 64.603 63.8666 64.5994 64.0971C64.5951 64.3743 64.3669 64.5956 64.0897 64.5913C63.8125 64.587 63.5913 64.3589 63.5956 64.0817C63.5982 63.9103 63.5857 63.7387 63.5579 63.569C63.5133 63.2954 63.6989 63.0373 63.9725 62.9927Z" fill="white"/>
<path d="M90.1482 69.5486C93.3831 69.5486 96.0058 66.9198 96.0058 63.6774C96.0058 60.4349 93.3831 57.8062 90.1482 57.8062C86.9132 57.8062 84.2905 60.4349 84.2905 63.6774C84.2905 66.9198 86.9132 69.5486 90.1482 69.5486Z" fill="url(#paint14_linear)"/>
<path fill-rule="evenodd" clip-rule="evenodd" d="M89.0312 60.0751C90.2455 59.7431 91.6002 60.0056 92.6215 60.8965L92.1796 61.7641L89.0517 61.0486L89.0312 60.0751ZM93.2012 62.4501C93.4686 62.377 93.7446 62.5346 93.8177 62.802C93.8787 63.025 93.9198 63.2532 93.9402 63.4834C93.9647 63.7596 93.7606 64.0033 93.4845 64.0277C93.2083 64.0522 92.9646 63.8481 92.9402 63.572C92.9251 63.4019 92.8946 63.2326 92.8493 63.0667C92.7762 62.7992 92.9337 62.5232 93.2012 62.4501Z" fill="white"/>
<g opacity="0.7">
<path opacity="0.7" d="M59.8762 70.2756C59.8762 70.2756 56.1093 75.086 56.1086 78.6517C56.1082 80.9616 57.7955 82.4193 59.8762 82.4193C61.957 82.4193 63.6442 80.9616 63.6438 78.6517C63.6431 75.086 59.8762 70.2756 59.8762 70.2756Z" fill="#B0DCFF"/>
<g opacity="0.05">
<path opacity="0.05" d="M60.1633 70.6599C61.1749 72.6005 62.2757 75.2172 62.2761 77.4196C62.2765 80.0588 60.5893 81.7243 58.5085 81.7243C58.1146 81.7243 57.7349 81.6644 57.3779 81.5496C58.0429 82.1092 58.9175 82.4193 59.8761 82.4193C61.9569 82.4193 63.6441 80.9616 63.6437 78.6517C63.6431 75.6875 61.0417 71.8659 60.1633 70.6599Z" fill="black"/>
</g>
<path opacity="0.7" d="M57.378 80.0655C57.7854 80.0655 58.1157 79.4794 58.1157 78.7565C58.1157 78.0336 57.7854 77.4475 57.378 77.4475C56.9706 77.4475 56.6404 78.0336 56.6404 78.7565C56.6404 79.4794 56.9706 80.0655 57.378 80.0655Z" fill="white"/>
</g>
<path opacity="0.1" d="M75.3457 150C86.9507 150 96.3584 148.824 96.3584 147.373C96.3584 145.922 86.9507 144.746 75.3457 144.746C63.7407 144.746 54.333 145.922 54.333 147.373C54.333 148.824 63.7407 150 75.3457 150Z" fill="black"/>
<defs>
<linearGradient id="paint0_linear" x1="80.3285" y1="20.6786" x2="70.0415" y2="128.587" gradientUnits="userSpaceOnUse">
<stop stop-color="#EBF6FF"/>
<stop offset="0.46178" stop-color="#E9F5FF"/>
<stop offset="0.68927" stop-color="#E1F2FF"/>
<stop offset="0.86503" stop-color="#D4ECFF"/>
<stop offset="0.99811" stop-color="#C4E5FF"/>
</linearGradient>
<linearGradient id="paint1_linear" x1="66.761" y1="23.8673" x2="83.612" y2="125.436" gradientUnits="userSpaceOnUse">
<stop stop-color="#EBF6FF"/>
<stop offset="0.46178" stop-color="#E9F5FF"/>
<stop offset="0.68927" stop-color="#E1F2FF"/>
<stop offset="0.86503" stop-color="#D4ECFF"/>
<stop offset="0.99811" stop-color="#C4E5FF"/>
</linearGradient>
<linearGradient id="paint2_linear" x1="76.6658" y1="5.00801" x2="73.7071" y2="12.8878" gradientUnits="userSpaceOnUse">
<stop stop-color="#62F4C0"/>
<stop offset="0.25009" stop-color="#4FD7D7"/>
<stop offset="0.54216" stop-color="#3EBCED"/>
<stop offset="0.80165" stop-color="#34ACFA"/>
<stop offset="1" stop-color="#30A6FF"/>
</linearGradient>
<linearGradient id="paint3_linear" x1="78.3304" y1="0.574752" x2="72.0424" y2="17.321" gradientUnits="userSpaceOnUse">
<stop stop-color="#62F4C0"/>
<stop offset="0.25009" stop-color="#4FD7D7"/>
<stop offset="0.54216" stop-color="#3EBCED"/>
<stop offset="0.80165" stop-color="#34ACFA"/>
<stop offset="1" stop-color="#30A6FF"/>
</linearGradient>
<linearGradient id="paint4_linear" x1="77.4979" y1="2.79151" x2="72.8747" y2="15.1045" gradientUnits="userSpaceOnUse">
<stop stop-color="#62F4C0"/>
<stop offset="0.25009" stop-color="#4FD7D7"/>
<stop offset="0.54216" stop-color="#3EBCED"/>
<stop offset="0.80165" stop-color="#34ACFA"/>
<stop offset="1" stop-color="#30A6FF"/>
</linearGradient>
<linearGradient id="paint5_linear" x1="76.6658" y1="5.00801" x2="73.7071" y2="12.8878" gradientUnits="userSpaceOnUse">
<stop stop-color="#62F4C0"/>
<stop offset="0.25009" stop-color="#4FD7D7"/>
<stop offset="0.54216" stop-color="#3EBCED"/>
<stop offset="0.80165" stop-color="#34ACFA"/>
<stop offset="1" stop-color="#30A6FF"/>
</linearGradient>
<linearGradient id="paint6_linear" x1="48.138" y1="113.053" x2="50.7639" y2="126.56" gradientUnits="userSpaceOnUse">
<stop stop-color="#355673"/>
<stop offset="0.41782" stop-color="#345470"/>
<stop offset="0.66908" stop-color="#304D68"/>
<stop offset="0.87559" stop-color="#29415A"/>
<stop offset="1" stop-color="#23364D"/>
</linearGradient>
<linearGradient id="paint7_linear" x1="51.3555" y1="112.408" x2="53.2267" y2="122.033" gradientUnits="userSpaceOnUse">
<stop stop-color="#355673"/>
<stop offset="0.41782" stop-color="#345470"/>
<stop offset="0.66908" stop-color="#304D68"/>
<stop offset="0.87559" stop-color="#29415A"/>
<stop offset="1" stop-color="#23364D"/>
</linearGradient>
<linearGradient id="paint8_linear" x1="99.4801" y1="113.054" x2="96.8542" y2="126.56" gradientUnits="userSpaceOnUse">
<stop stop-color="#355673"/>
<stop offset="0.41782" stop-color="#345470"/>
<stop offset="0.66908" stop-color="#304D68"/>
<stop offset="0.87559" stop-color="#29415A"/>
<stop offset="1" stop-color="#23364D"/>
</linearGradient>
<linearGradient id="paint9_linear" x1="96.2626" y1="112.409" x2="94.3914" y2="122.033" gradientUnits="userSpaceOnUse">
<stop stop-color="#355673"/>
<stop offset="0.41782" stop-color="#345470"/>
<stop offset="0.66908" stop-color="#304D68"/>
<stop offset="0.87559" stop-color="#29415A"/>
<stop offset="1" stop-color="#23364D"/>
</linearGradient>
<linearGradient id="paint10_linear" x1="90.1406" y1="52.4452" x2="100.945" y2="55.6128" gradientUnits="userSpaceOnUse">
<stop stop-color="#2E4866" stop-opacity="0.8"/>
<stop offset="1" stop-color="#2E4866"/>
</linearGradient>
<linearGradient id="paint11_linear" x1="60.4339" y1="52.4715" x2="49.63" y2="55.6391" gradientUnits="userSpaceOnUse">
<stop stop-color="#2E4866" stop-opacity="0.8"/>
<stop offset="1" stop-color="#2E4866"/>
</linearGradient>
<linearGradient id="paint12_linear" x1="79.3032" y1="93.2292" x2="70.6219" y2="81.0179" gradientUnits="userSpaceOnUse">
<stop stop-color="#355673"/>
<stop offset="0.41782" stop-color="#345470"/>
<stop offset="0.66908" stop-color="#304D68"/>
<stop offset="0.87559" stop-color="#29415A"/>
<stop offset="1" stop-color="#23364D"/>
</linearGradient>
<linearGradient id="paint13_linear" x1="54.6858" y1="63.6774" x2="66.4009" y2="63.6774" gradientUnits="userSpaceOnUse">
<stop stop-color="#2E4866" stop-opacity="0.8"/>
<stop offset="1" stop-color="#2E4866"/>
</linearGradient>
<linearGradient id="paint14_linear" x1="84.2905" y1="63.6774" x2="96.0058" y2="63.6774" gradientUnits="userSpaceOnUse">
<stop stop-color="#2E4866" stop-opacity="0.8"/>
<stop offset="1" stop-color="#2E4866"/>
</linearGradient>
</defs>
</svg>
