<svg width="30" height="30" viewBox="0 0 30 30" fill="none" xmlns="http://www.w3.org/2000/svg">
<path d="M29.9205 10.7685C29.727 10.2015 29.2155 9.801 28.6185 9.7545L20.067 9.075L16.3665 0.8835C16.125 0.345 15.5895 0 15 0C14.4105 0 13.875 0.345 13.6335 0.882L9.93303 9.075L1.38153 9.7545C0.795029 9.801 0.289529 10.1865 0.0900293 10.74C-0.109471 11.2935 0.0315294 11.913 0.453029 12.324L6.77253 18.4845L4.53753 28.1625C4.39953 28.761 4.64103 29.3835 5.14653 29.733C5.40453 29.91 5.70153 30 6.00003 30C6.28953 30 6.58053 29.916 6.83253 29.748L15 24.303L23.1675 29.748C23.6895 30.096 24.375 30.0825 24.885 29.712C25.392 29.3415 25.6155 28.692 25.443 28.089L22.6995 18.489L29.5035 12.366C29.949 11.964 30.1125 11.337 29.9205 10.7685Z" fill="#FECA14"/>
</svg>
